<?xml version="1.0" encoding="UTF-8"?>
<svg version="1.1" xmlns="http://www.w3.org/2000/svg" width="612" height="408">
<path d="M0 0 C7.83062767 4.68250371 13.51982703 10.593373 16.3125 19.3828125 C19.52044887 34.96141421 13.85666444 48.57731492 7.3125 62.3828125 C8.53324219 62.60195312 9.75398437 62.82109375 11.01171875 63.046875 C21.24839819 64.98441685 30.07666129 67.40839309 39.3125 72.3828125 C39.3125 73.0428125 39.3125 73.7028125 39.3125 74.3828125 C39.87839844 74.46917969 40.44429688 74.55554688 41.02734375 74.64453125 C43.97036636 75.59535394 45.59570628 77.11656577 47.875 79.1953125 C48.63941406 79.88238281 49.40382813 80.56945312 50.19140625 81.27734375 C52.1468689 83.21840152 53.8020066 85.08087847 55.3125 87.3828125 C55.3125 89.3828125 55.3125 89.3828125 54.3125 91.3828125 C49.97916667 95.3828125 49.97916667 95.3828125 47.3125 95.3828125 C46.9721875 96.15625 46.9721875 96.15625 46.625 96.9453125 C45.48174473 99.06850087 44.29463258 100.69032132 42.8125 102.5703125 C39.88760127 106.53920163 39.04332005 110.57248947 38.3125 115.3828125 C39.6325 114.7228125 40.9525 114.0628125 42.3125 113.3828125 C42.3125 112.7228125 42.3125 112.0628125 42.3125 111.3828125 C44.4017558 109.65481131 46.47797435 108.06901047 48.6875 106.5078125 C49.32437744 106.05599609 49.96125488 105.60417969 50.61743164 105.13867188 C55.59830151 101.69572623 60.50819194 99.17195405 66.3125 97.3828125 C66.96992188 97.16109375 67.62734375 96.939375 68.3046875 96.7109375 C71.71238158 95.62866556 74.74377845 95.16652635 78.3125 95.3828125 C77.714375 94.2896875 77.11625 93.1965625 76.5 92.0703125 C72.46256402 83.89450464 69.85486184 75.41912842 72.3125 66.3828125 C75.06477959 60.25369756 78.85200573 55.99234472 85 53.1328125 C92.39365423 51.45877758 98.64409589 51.72172789 105.3125 55.3828125 C109.63545019 58.19775681 112.80795503 61.39700657 114.3125 66.3828125 C115.53511482 76.78635899 114.28896154 84.99862789 109.3125 94.3828125 C110.97925781 94.81980469 110.97925781 94.81980469 112.6796875 95.265625 C124.89536119 98.58130786 136.01854742 102.27979579 143.3125 113.3828125 C144.73781242 116.33524537 145.62720266 119.18282239 146.3125 122.3828125 C146.7146875 124.1153125 146.7146875 124.1153125 147.125 125.8828125 C145.27916078 133.83411992 136.51305151 138.41844025 130 142.5703125 C123.64681662 146.34440596 117.09345882 149.45290558 110.3125 152.3828125 C112.04235242 152.26769097 113.77138751 152.14025573 115.5 152.0078125 C116.46292969 151.93820312 117.42585938 151.86859375 118.41796875 151.796875 C121.34442325 151.37824588 123.60944676 150.54768902 126.3125 149.3828125 C127.42625 149.1146875 128.54 148.8465625 129.6875 148.5703125 C145.67606667 144.67718567 161.16549706 138.07411887 176.14257812 131.35375977 C178.22570038 130.42165162 180.31570772 129.5078921 182.41015625 128.6015625 C190.88378696 124.95668741 190.88378696 124.95668741 199.1875 120.9453125 C202.3125 119.3828125 202.3125 119.3828125 204.3125 119.3828125 C203.9283121 121.84287037 203.58402923 123.11320374 201.79370117 124.89086914 C201.15408447 125.35356201 200.51446777 125.81625488 199.85546875 126.29296875 C199.15486328 126.80794922 198.45425781 127.32292969 197.73242188 127.85351562 C196.62737305 128.64145508 196.62737305 128.64145508 195.5 129.4453125 C194.77490234 129.97447266 194.04980469 130.50363281 193.30273438 131.04882812 C191.94515307 132.03875704 190.58440488 133.02436831 189.21948242 134.00415039 C187.86878333 134.98064479 186.55100696 136.00343249 185.2590332 137.05639648 C183.3125 138.3828125 183.3125 138.3828125 180.3125 138.3828125 C180.3125 139.0428125 180.3125 139.7028125 180.3125 140.3828125 C178.08971375 141.90110912 175.8848013 143.28181805 173.5625 144.6328125 C172.87655762 145.03757812 172.19061523 145.44234375 171.48388672 145.859375 C166.58923225 148.71677031 161.61284886 151.33284412 156.5078125 153.796875 C154.13209524 154.97602073 151.81282165 156.18947026 149.4921875 157.46875 C90.18157983 190.08676259 14.07631243 201.70147747 -52.6875 191.3828125 C-54.30291416 191.17213571 -55.91884091 190.96536632 -57.53515625 190.76171875 C-90.32230643 186.53845594 -123.8517714 177.77354379 -153.6875 163.3828125 C-155.08155182 162.77454645 -156.47740587 162.17039474 -157.875 161.5703125 C-168.23328819 156.96050694 -178.27578606 151.68979355 -188.1875 146.1953125 C-188.91638428 145.7916748 -189.64526855 145.38803711 -190.39624023 144.97216797 C-194.03431532 142.93617718 -197.64373222 140.85188485 -201.21875 138.70703125 C-201.88455078 138.30959717 -202.55035156 137.91216309 -203.23632812 137.50268555 C-203.71521484 137.13312744 -204.19410156 136.76356934 -204.6875 136.3828125 C-204.6875 135.7228125 -204.6875 135.0628125 -204.6875 134.3828125 C-205.22246094 134.30933594 -205.75742188 134.23585938 -206.30859375 134.16015625 C-209.66137209 133.064585 -211.96908308 131.09905857 -214.75 128.9453125 C-217.6956391 126.67691552 -220.59381645 124.4452682 -223.6875 122.3828125 C-223.6875 121.7228125 -223.6875 121.0628125 -223.6875 120.3828125 C-218.80640556 120.86135117 -215.79247035 121.77966057 -211.6875 124.3828125 C-209.77911127 125.10668409 -207.86935749 125.82742949 -205.94921875 126.51953125 C-203.53736178 127.44011914 -201.21713627 128.48457801 -198.875 129.5703125 C-166.00806756 145.57033858 -166.00806756 145.57033858 -130.6875 152.3828125 C-132.481875 151.6403125 -132.481875 151.6403125 -134.3125 150.8828125 C-145.61038473 145.83784511 -159.58995659 138.91536361 -167.6875 129.3828125 C-169.04902719 122.27261496 -165.48359736 116.24031519 -161.6875 110.3828125 C-152.91776225 100.58040636 -143.03879781 97.3712861 -130.6875 94.3828125 C-131.14769531 93.66480469 -131.60789062 92.94679688 -132.08203125 92.20703125 C-136.10777357 85.12525097 -137.87118946 76.46687349 -136.6875 68.3828125 C-134.82361543 62.15876939 -131.04175763 57.94450685 -125.6875 54.3828125 C-120.16651867 51.79852337 -114.71403998 51.38837793 -108.953125 53.28125 C-106.50068216 54.25807045 -104.08640109 55.28167758 -101.6875 56.3828125 C-101.6875 57.0428125 -101.6875 57.7028125 -101.6875 58.3828125 C-101.07390625 58.64191406 -100.4603125 58.90101563 -99.828125 59.16796875 C-96.13585856 61.26339733 -94.95720477 64.44479417 -93.6875 68.3828125 C-92.31073277 76.40342896 -94.68786818 83.14207957 -97.59375 90.51171875 C-98.80616511 93.18224645 -98.80616511 93.18224645 -98.6875 95.3828125 C-97.67171875 95.59035156 -96.6559375 95.79789062 -95.609375 96.01171875 C-85.24832244 98.27587076 -75.1148293 101.26456885 -67.6875 109.3828125 C-70.52787999 102.91026519 -72.94025502 98.54039398 -78.6875 94.3828125 C-81.125 92.3203125 -81.125 92.3203125 -82.6875 90.3828125 C-82.78837108 87.25580894 -81.55821199 86.24275049 -79.4375 83.9453125 C-78.07625 82.676875 -78.07625 82.676875 -76.6875 81.3828125 C-75.945 80.5784375 -75.2025 79.7740625 -74.4375 78.9453125 C-63.17368377 68.44948374 -50.33664067 65.35372776 -35.6875 62.3828125 C-36.30367187 61.32707031 -36.91984375 60.27132812 -37.5546875 59.18359375 C-44.63142873 46.7790328 -48.17198956 32.31758576 -44.625 18.1953125 C-42.81638856 12.8728274 -39.77817692 8.2447634 -35.6875 4.3828125 C-33.46484375 3.63671875 -33.46484375 3.63671875 -31.6875 3.3828125 C-31.6875 2.7228125 -31.6875 2.0628125 -31.6875 1.3828125 C-21.67672371 -3.78403978 -10.3888658 -4.88686779 0 0 Z M-14.6875 73.3828125 C-19.1425 76.8478125 -19.1425 76.8478125 -23.6875 80.3828125 C-22.3675 81.3728125 -21.0475 82.3628125 -19.6875 83.3828125 C-18.70891828 92.56649183 -21.77539866 102.63665036 -23.6875 111.5703125 C-26.88719555 123.85826564 -26.88719555 123.85826564 -27.6875 136.3828125 C-26.16723265 138.30809623 -24.68673274 139.52705 -22.6796875 140.93359375 C-19.48108494 143.26042032 -17.15925545 146.32254385 -14.6875 149.3828125 C-6.2453257 142.89022099 -6.2453257 142.89022099 -0.91015625 133.99609375 C-0.64550775 130.88995611 -1.14791406 128.58544706 -1.9375 125.5703125 C-3.17089943 120.59186387 -4.26388841 115.6147002 -5.1875 110.5703125 C-5.30875244 109.90902344 -5.43000488 109.24773437 -5.55493164 108.56640625 C-5.80357654 107.20712565 -6.05169899 105.8477494 -6.29931641 104.48828125 C-6.7037198 102.29483795 -7.12158531 100.10430409 -7.54296875 97.9140625 C-7.6821875 97.18678955 -7.82140625 96.4595166 -7.96484375 95.71020508 C-8.23248596 94.31384558 -8.50193412 92.91783068 -8.7734375 91.5222168 C-9.30064251 88.75191039 -9.6875 86.21141061 -9.6875 83.3828125 C-8.0375 82.7228125 -6.3875 82.0628125 -4.6875 81.3828125 C-7.79766455 78.09492426 -10.70368925 75.54545262 -14.6875 73.3828125 Z M-115.6875 103.3828125 C-117.3375 105.0328125 -118.9875 106.6828125 -120.6875 108.3828125 C-120.0275 108.7128125 -119.3675 109.0428125 -118.6875 109.3828125 C-119.3007784 116.37418621 -120.63036422 123.09136307 -122.1640625 129.9296875 C-122.66837392 133.25663748 -122.8158555 135.23758967 -121.6875 138.3828125 C-120.10300534 140.23769899 -120.10300534 140.23769899 -118.125 141.6953125 C-117.16400391 142.46294922 -117.16400391 142.46294922 -116.18359375 143.24609375 C-115.68988281 143.62121094 -115.19617188 143.99632812 -114.6875 144.3828125 C-112.97865995 142.75941445 -111.31303283 141.08962197 -109.6875 139.3828125 C-109.6875 138.7228125 -109.6875 138.0628125 -109.6875 137.3828125 C-109.0275 137.3828125 -108.3675 137.3828125 -107.6875 137.3828125 C-108.16274583 133.25469679 -108.69319039 129.17513737 -109.4765625 125.09375 C-109.61320312 124.37960937 -109.74984375 123.66546875 -109.890625 122.9296875 C-110.17362387 121.4727674 -110.46276587 120.01702811 -110.7578125 118.5625 C-111.57911083 114.20330116 -111.72778751 110.77976106 -110.6875 106.3828125 C-112.3375 105.3928125 -113.9875 104.4028125 -115.6875 103.3828125 Z M93.3125 103.3828125 C91.20785029 104.51056596 91.20785029 104.51056596 89.3125 106.3828125 C88.93993598 108.94983903 88.93993598 108.94983903 89.25 111.8203125 C89.42339546 116.44046237 89.03193446 120.23341867 87.8125 124.6953125 C86.022851 130.95842405 86.022851 130.95842405 86.3125 137.3828125 C88.40563594 140.01745625 90.73885512 142.22278912 93.3125 144.3828125 C94.075625 143.5990625 94.83875 142.8153125 95.625 142.0078125 C98.3125 139.3828125 98.3125 139.3828125 101.3125 137.3828125 C100.92238401 133.01351343 100.40687528 128.73468002 99.54296875 124.43359375 C99.4035083 123.73621094 99.26404785 123.03882813 99.12036133 122.3203125 C98.83643801 120.92647799 98.5435993 119.53442357 98.2409668 118.14453125 C97.38214627 113.92031454 97.33313411 110.5810276 98.3125 106.3828125 C96.6625 105.3928125 95.0125 104.4028125 93.3125 103.3828125 Z " fill="#0475CF" transform="translate(282.6875,156.6171875)"/>
<path d="M0 0 C28.05 0 56.1 0 85 0 C85 65.67 85 131.34 85 199 C83.68 199 82.36 199 81 199 C80.5875 198.07058594 80.175 197.14117187 79.75 196.18359375 C76.28150141 188.64798279 73.11590097 182.68877196 66 178 C65.09507812 177.37351563 65.09507812 177.37351563 64.171875 176.734375 C57.65091033 172.84371541 49.48293686 172.09490841 42.1171875 173.58203125 C40.47039179 174.08098577 38.83441638 174.61889537 37.21875 175.2109375 C35 176 35 176 32.30078125 176.47265625 C29.81405879 176.75912568 29.81405879 176.75912568 28.6875 179.0625 C28.460625 179.701875 28.23375 180.34125 28 181 C27.34 181 26.68 181 26 181 C25.62875 181.804375 25.62875 181.804375 25.25 182.625 C24 185 24 185 22.03125 187.625 C19.6527337 191.57699632 18.94116072 194.8783897 18.25 199.375 C18.06244141 200.47908203 18.06244141 200.47908203 17.87109375 201.60546875 C17.56786412 203.40152115 17.28210552 205.20050871 17 207 C14 207 14 207 12.421875 205.42578125 C11.31763728 204.03000413 10.21346926 202.63417185 9.109375 201.23828125 C7.19804607 199.21014889 5.76622079 198.24870892 3.42077541 196.85799885 C0.34833832 194.67643811 0.06199104 194.26233457 -0.8613348 190.35499096 C-0.89060512 188.91485571 -0.88144112 187.47362378 -0.84178162 186.03373718 C-0.84776259 185.2372559 -0.85374356 184.44077462 -0.85990578 183.62015754 C-0.87142874 180.95357337 -0.8329586 178.29007878 -0.79467773 175.6237793 C-0.79270304 173.71173678 -0.79381189 171.79968896 -0.79777527 169.88764954 C-0.79978505 164.69756392 -0.75860953 159.50860902 -0.70975757 154.31878638 C-0.6660203 148.89494025 -0.66188817 143.47106864 -0.65357971 138.04707336 C-0.63181642 127.77635914 -0.5743642 117.50616603 -0.50413328 107.23568135 C-0.4112876 93.35698807 -0.37348172 79.47815244 -0.33261776 65.59922695 C-0.26678178 43.73242758 -0.1273319 21.86672792 0 0 Z " fill="#0475D0" transform="translate(327,27)"/>
<path d="M0 0 C-0.3841879 2.46005787 -0.72847077 3.73039124 -2.51879883 5.50805664 C-3.15841553 5.97074951 -3.79803223 6.43344238 -4.45703125 6.91015625 C-5.15763672 7.42513672 -5.85824219 7.94011719 -6.58007812 8.47070312 C-7.68512695 9.25864258 -7.68512695 9.25864258 -8.8125 10.0625 C-9.53759766 10.59166016 -10.26269531 11.12082031 -11.00976562 11.66601562 C-12.36734693 12.65594454 -13.72809512 13.64155581 -15.09301758 14.62133789 C-16.44371667 15.59783229 -17.76149304 16.62061999 -19.0534668 17.67358398 C-21 19 -21 19 -24 19 C-24 19.66 -24 20.32 -24 21 C-26.22278625 22.51829662 -28.4276987 23.89900555 -30.75 25.25 C-31.43594238 25.65476562 -32.12188477 26.05953125 -32.82861328 26.4765625 C-37.72326775 29.33395781 -42.69965114 31.95003162 -47.8046875 34.4140625 C-50.18040476 35.59320823 -52.49967835 36.80665776 -54.8203125 38.0859375 C-114.13092017 70.70395009 -190.23618757 82.31866497 -257 72 C-258.61541416 71.78932321 -260.23134091 71.58255382 -261.84765625 71.37890625 C-294.63480643 67.15564344 -328.1642714 58.39073129 -358 44 C-359.39405182 43.39173395 -360.78990587 42.78758224 -362.1875 42.1875 C-372.54578819 37.57769444 -382.58828606 32.30698105 -392.5 26.8125 C-393.22888428 26.4088623 -393.95776855 26.00522461 -394.70874023 25.58935547 C-398.34681532 23.55336468 -401.95623222 21.46907235 -405.53125 19.32421875 C-406.19705078 18.92678467 -406.86285156 18.52935059 -407.54882812 18.11987305 C-408.02771484 17.75031494 -408.50660156 17.38075684 -409 17 C-409 16.34 -409 15.68 -409 15 C-409.80244141 14.88978516 -409.80244141 14.88978516 -410.62109375 14.77734375 C-413.97387209 13.6817725 -416.28158308 11.71624607 -419.0625 9.5625 C-422.0081391 7.29410302 -424.90631645 5.0624557 -428 3 C-428 2.34 -428 1.68 -428 1 C-423.11890556 1.47853867 -420.10497035 2.39684807 -416 5 C-414.09161127 5.72387159 -412.18185749 6.44461699 -410.26171875 7.13671875 C-407.84986178 8.05730664 -405.52963627 9.10176551 -403.1875 10.1875 C-381.1738832 20.25948358 -358.89495115 28.27737725 -335.22583008 33.50097656 C-330.3412689 34.59607836 -325.50081359 35.72134082 -320.8125 37.5 C-316.04880842 39.12882238 -311.27255993 39.84154119 -306.296875 40.53515625 C-303.32564408 40.95408573 -300.38896344 41.46223336 -297.4375 42 C-291.18658725 43.05695751 -284.90890281 43.65781016 -278.6003418 44.24780273 C-273.62124532 44.71758111 -268.69785999 45.32360498 -263.75 46.0625 C-239.86850967 49.10762979 -215.04144176 48.30621891 -191 48 C-189.96037109 47.98743164 -188.92074219 47.97486328 -187.84960938 47.96191406 C-174.57784458 47.74499729 -161.43766603 46.54615677 -148.25 45.125 C-147.47982544 45.04390991 -146.70965088 44.96281982 -145.9161377 44.87927246 C-137.65470788 43.9977646 -129.65814828 42.84764607 -121.61816406 40.66894531 C-117.85907159 39.70849088 -114.10224027 39.22095738 -110.25 38.8125 C-109.18652344 38.6897168 -109.18652344 38.6897168 -108.1015625 38.56445312 C-106.40184078 38.36921482 -104.70103043 38.18348678 -103 38 C-103 37.34 -103 36.68 -103 36 C-102.40799805 35.87995605 -101.81599609 35.75991211 -101.20605469 35.63623047 C-78.58367599 31.00278373 -56.47911032 25.0574086 -35.52734375 15.17578125 C-32.99913617 13.99959812 -30.44604879 12.89326713 -27.88061523 11.80102539 C-24.60099701 10.40411154 -21.33097446 8.98526153 -18.0625 7.5625 C-17.3617334 7.25755615 -16.6609668 6.9526123 -15.93896484 6.63842773 C-12.28306768 5.03668726 -8.67672073 3.38723726 -5.125 1.5625 C-2 0 -2 0 0 0 Z " fill="#5F83AF" transform="translate(487,276)"/>
<path d="M0 0 C24.75 0 49.5 0 75 0 C75.83085875 37.75791436 75.99374198 75.25137566 75 113 C74.01 113 73.02 113 72 113 C71.505 114.485 71.505 114.485 71 116 C65.62857143 120 65.62857143 120 63 120 C62.85304688 119.05640625 62.85304688 119.05640625 62.703125 118.09375 C61.16938516 109.31441158 58.74380019 103.05212838 52 97 C51.54367188 96.505 51.08734375 96.01 50.6171875 95.5 C44.47176805 89.7999008 36.15137836 89.4839747 28.20703125 89.7421875 C21.61289216 90.27228882 17.46578421 92.14910658 12 96 C10.515 96.495 10.515 96.495 9 97 C8.29605388 98.31403276 7.63654342 99.6520257 7 101 C5.9790625 102.2684375 5.9790625 102.2684375 4.9375 103.5625 C2.83615651 105.92026019 2.83615651 105.92026019 2 109 C1.01 109 0.02 109 -1 109 C-0.67 73.03 -0.34 37.06 0 0 Z " fill="#8DD9F5" transform="translate(136,111)"/>
<path d="M0 0 C27.39 0 54.78 0 83 0 C83 34.32 83 68.64 83 104 C81.515 103.505 81.515 103.505 80 103 C79.2927286 101.34970008 78.5917992 99.69627478 77.9296875 98.02734375 C74.05621224 89.58056367 66.68707236 82.33787101 58.1875 78.6875 C46.18536356 74.42986139 33.79805614 73.51201532 22 79 C19.56609648 80.5590013 17.30965478 82.25597496 15 84 C14.34 84 13.68 84 13 84 C12.34 85.32 11.68 86.64 11 88 C10.34 88 9.68 88 9 88 C8.67 89.32 8.34 90.64 8 92 C7.34 92 6.68 92 6 92 C5.70996094 92.92232422 5.70996094 92.92232422 5.4140625 93.86328125 C5.15367187 94.67152344 4.89328125 95.47976562 4.625 96.3125 C4.36976563 97.11300781 4.11453125 97.91351563 3.8515625 98.73828125 C3 101 3 101 1 104 C0.34 104 -0.32 104 -1 104 C-1.023131 90.73539664 -1.04091897 77.47079805 -1.05181217 64.20617867 C-1.05703933 58.04743871 -1.06413398 51.88871251 -1.07543945 45.72998047 C-1.08627422 39.79075866 -1.0922781 33.85155011 -1.09487724 27.91231918 C-1.09673042 25.64202541 -1.100349 23.3717324 -1.10573006 21.10144424 C-1.11294828 17.93105732 -1.11399061 14.7607258 -1.11352539 11.59033203 C-1.11712067 10.64374725 -1.12071594 9.69716248 -1.12442017 8.72189331 C-1.1230455 7.86090027 -1.12167084 6.99990723 -1.12025452 6.11282349 C-1.12117631 5.362484 -1.1220981 4.61214451 -1.12304783 3.83906746 C-1 2 -1 2 0 0 Z " fill="#6083AE" transform="translate(227,69)"/>
<path d="M0 0 C28.05 0 56.1 0 85 0 C85 65.67 85 131.34 85 199 C83.68 199 82.36 199 81 199 C80.34 197.02 79.68 195.04 79 193 C79.99 193 80.98 193 82 193 C82.02334347 168.55692914 82.04098631 144.11385994 82.05181217 119.67078018 C82.05697204 108.32185748 82.06400889 96.9729417 82.07543945 85.62402344 C82.08539569 75.73419876 82.09185568 65.8443791 82.09408849 55.95454955 C82.095394 50.71627797 82.09846977 45.47802072 82.10573006 40.23975372 C82.11250507 35.31179783 82.11461392 30.38386221 82.11310768 25.4559021 C82.11338334 23.64506673 82.11537969 21.8342307 82.11920547 20.02339935 C82.12416581 17.55498284 82.12298958 15.08664332 82.12025452 12.6182251 C82.12316736 11.89837818 82.1260802 11.17853127 82.12908131 10.43687081 C82.11919513 7.1456493 82.01715017 4.14730045 81 1 C71.86350097 1.08454213 62.72718529 1.1794789 53.5909338 1.28752708 C49.34817179 1.33738009 45.10543336 1.38371073 40.86254883 1.421875 C36.76459464 1.45886719 32.66684312 1.50526417 28.56906319 1.55806351 C27.00908542 1.57653367 25.44906433 1.59166859 23.88902092 1.60334396 C21.69655674 1.62033357 19.50454929 1.64939728 17.31225586 1.68115234 C15.44361122 1.70113785 15.44361122 1.70113785 13.53721619 1.7215271 C9.358998 1.93276924 9.358998 1.93276924 3 4 C2.67 65.71 2.34 127.42 2 191 C2.66 191 3.32 191 4 191 C4 191.66 4 192.32 4 193 C4.66 193 5.32 193 6 193 C6.33 193.99 6.66 194.98 7 196 C9.37612865 197.60907108 9.37612865 197.60907108 12 199 C12.99 199.66 13.98 200.32 15 201 C15.33 197.7 15.66 194.4 16 191 C16.66 191 17.32 191 18 191 C18 189.35 18 187.7 18 186 C18.66 185.67 19.32 185.34 20 185 C21.13350534 182.98330173 21.13350534 182.98330173 22 181 C22.66 182.32 23.32 183.64 24 185 C23.06414062 186.22589844 23.06414062 186.22589844 22.109375 187.4765625 C19.59801941 191.24359588 18.92896131 194.95775759 18.25 199.375 C18.06244141 200.47908203 18.06244141 200.47908203 17.87109375 201.60546875 C17.56786412 203.40152115 17.28210552 205.20050871 17 207 C14 207 14 207 12.421875 205.42578125 C11.31763728 204.03000413 10.21346926 202.63417185 9.109375 201.23828125 C7.19804607 199.21014889 5.76622079 198.24870892 3.42077541 196.85799885 C0.34833832 194.67643811 0.06199104 194.26233457 -0.8613348 190.35499096 C-0.89060512 188.91485571 -0.88144112 187.47362378 -0.84178162 186.03373718 C-0.84776259 185.2372559 -0.85374356 184.44077462 -0.85990578 183.62015754 C-0.87142874 180.95357337 -0.8329586 178.29007878 -0.79467773 175.6237793 C-0.79270304 173.71173678 -0.79381189 171.79968896 -0.79777527 169.88764954 C-0.79978505 164.69756392 -0.75860953 159.50860902 -0.70975757 154.31878638 C-0.6660203 148.89494025 -0.66188817 143.47106864 -0.65357971 138.04707336 C-0.63181642 127.77635914 -0.5743642 117.50616603 -0.50413328 107.23568135 C-0.4112876 93.35698807 -0.37348172 79.47815244 -0.33261776 65.59922695 C-0.26678178 43.73242758 -0.1273319 21.86672792 0 0 Z " fill="#0D61AD" transform="translate(327,27)"/>
<path d="M0 0 C7.86796615 1.9412552 14.93905579 4.54971891 22.21875 8.07421875 C29.89481073 11.51565264 37.71163525 12.21846685 46 13 C46 13.66 46 14.32 46 15 C46.61488281 14.98839844 47.22976562 14.97679687 47.86328125 14.96484375 C48.67152344 14.95582031 49.47976562 14.94679688 50.3125 14.9375 C51.51326172 14.92009766 51.51326172 14.92009766 52.73828125 14.90234375 C55 15 55 15 58 16 C60.64904265 16.20399045 63.2848963 16.37176312 65.9375 16.5 C70.07147752 16.7009314 73.97942794 16.98893276 78 18 C80.62785929 18.20085549 83.24383613 18.36964876 85.875 18.5 C93.31075651 18.8724776 93.31075651 18.8724776 96.7537384 19.50949097 C100.48211955 20.0728481 104.12580018 20.14007708 107.88549805 20.12939453 C108.6520874 20.13114685 109.41867676 20.13289917 110.20849609 20.13470459 C112.72626043 20.13908328 115.24395378 20.13620007 117.76171875 20.1328125 C119.5171561 20.13348648 121.27259336 20.13445728 123.0280304 20.13571167 C126.69879041 20.13718306 130.36952603 20.13505125 134.0402832 20.13037109 C138.74804712 20.1246615 143.45575419 20.12796411 148.16351604 20.13394356 C151.78455536 20.13755347 155.40558115 20.13640882 159.02662086 20.13381577 C160.76298848 20.13314834 162.49935731 20.13396849 164.2357235 20.13629532 C166.65807744 20.13883024 169.08033853 20.13496992 171.50268555 20.12939453 C172.58042992 20.13243088 172.58042992 20.13243088 173.6799469 20.13552856 C176.73393955 20.12248388 179.07775725 19.97408092 182 19 C184.39490986 18.93029948 186.79167691 18.91551997 189.1875 18.9375 C190.45980469 18.94652344 191.73210937 18.95554687 193.04296875 18.96484375 C194.50669922 18.98224609 194.50669922 18.98224609 196 19 C196 19.33 196 19.66 196 20 C172.84680001 23.50702882 149.38704882 23.26806815 126.02478027 23.01959229 C124.0585556 23.0005666 122.09226165 22.9891797 120.12597656 22.97802734 C103.1112523 22.84922715 86.4498271 21.5899803 69.5625 19.5625 C68.65018616 19.45322174 67.73787231 19.34394348 66.7979126 19.23135376 C64.17804141 18.91326504 61.55951643 18.58615655 58.94140625 18.25390625 C58.17078354 18.15801208 57.40016083 18.06211792 56.60618591 17.96331787 C52.00368035 17.36012029 47.51639839 16.51045756 42.99734497 15.448349 C39.07789563 14.56854045 35.09010334 14.10633892 31.11328125 13.5625 C20.20441735 11.5915133 9.7606424 6.07467027 0 1 C0 0.67 0 0.34 0 0 Z " fill="#1C74BE" transform="translate(140,302)"/>
<path d="M0 0 C4.88109444 0.47853867 7.89502965 1.39684807 12 4 C15.58763234 5.48934431 19.26127068 6.74851768 22.9375 8 C23.9584375 8.495 23.9584375 8.495 25 9 C25.33 9.99 25.66 10.98 26 12 C25.34 12.66 24.68 13.32 24 14 C24.66 14.66 25.32 15.32 26 16 C24.02 16.99 24.02 16.99 22 18 C21.01 17.34 20.02 16.68 19 16 C19 15.34 19 14.68 19 14 C18.19755859 13.88978516 18.19755859 13.88978516 17.37890625 13.77734375 C14.02612791 12.6817725 11.71841692 10.71624607 8.9375 8.5625 C5.9918609 6.29410302 3.09368355 4.0624557 0 2 C0 1.34 0 0.68 0 0 Z " fill="#698CB5" transform="translate(59,277)"/>
<path d="M0 0 C0.66 1.32 1.32 2.64 2 4 C1.37609375 4.81726563 0.7521875 5.63453125 0.109375 6.4765625 C-2.40198059 10.24359588 -3.07103869 13.95775759 -3.75 18.375 C-3.87503906 19.11105469 -4.00007813 19.84710938 -4.12890625 20.60546875 C-4.43213588 22.40152115 -4.71789448 24.20050871 -5 26 C-8 26 -8 26 -9.6484375 24.42578125 C-10.21820313 23.72839844 -10.78796875 23.03101563 -11.375 22.3125 C-14.11997101 19.03135631 -16.93034295 15.97663714 -20 13 C-18.68 12.67 -17.36 12.34 -16 12 C-15.67 12.99 -15.34 13.98 -15 15 C-12.62387135 16.60907108 -12.62387135 16.60907108 -10 18 C-9.01 18.66 -8.02 19.32 -7 20 C-6.67 16.7 -6.34 13.4 -6 10 C-5.34 10 -4.68 10 -4 10 C-4 8.35 -4 6.7 -4 5 C-3.34 4.67 -2.68 4.34 -2 4 C-0.86649466 1.98330173 -0.86649466 1.98330173 0 0 Z " fill="#0C73BC" transform="translate(349,208)"/>
<path d="M0 0 C-0.38498729 2.43293744 -0.70903063 3.71422567 -2.49047852 5.46386719 C-3.42525024 6.12370605 -3.42525024 6.12370605 -4.37890625 6.796875 C-5.05244141 7.28027344 -5.72597656 7.76367188 -6.41992188 8.26171875 C-7.48049805 8.99841797 -7.48049805 8.99841797 -8.5625 9.75 C-9.27341797 10.25660156 -9.98433594 10.76320313 -10.71679688 11.28515625 C-12.47101432 12.53312303 -14.23463359 13.76785497 -16 15 C-16.33 14.34 -16.66 13.68 -17 13 C-16.34 13 -15.68 13 -15 13 C-15.33 12.01 -15.66 11.02 -16 10 C-18.01508358 9.26676204 -18.01508358 9.26676204 -20 9 C-2 0 -2 0 0 0 Z " fill="#5279AB" transform="translate(487,276)"/>
<path d="M0 0 C2.49118953 3.7367843 2.2065226 5.74451819 2.125 10.1875 C2.10695312 11.45980469 2.08890625 12.73210937 2.0703125 14.04296875 C2.03550781 15.50669922 2.03550781 15.50669922 2 17 C2.99 17 3.98 17 5 17 C4.67 18.32 4.34 19.64 4 21 C4.66 21 5.32 21 6 21 C4.94124926 24.40312738 3.99097846 27.01353231 2 30 C1.34 30 0.68 30 0 30 C0 20.1 0 10.2 0 0 Z " fill="#6A93B8" transform="translate(226,143)"/>
<path d="M0 0 C0 0.66 0 1.32 0 2 C-2.69694525 3.34847262 -5.24182169 3.36774976 -8.22265625 3.62109375 C-10.60152344 3.94563681 -12.82821216 4.41226991 -15.16015625 4.96484375 C-20.20330906 6.11421346 -25.22842963 6.66708829 -30.375 7.125 C-31.29240967 7.20991699 -32.20981934 7.29483398 -33.1550293 7.38232422 C-39.44529497 7.93638041 -45.68378829 8.26625717 -52 8 C-52 7.67 -52 7.34 -52 7 C-50.97229492 6.89453857 -49.94458984 6.78907715 -48.88574219 6.68041992 C-45.01565776 6.28093637 -41.14685887 5.86997439 -37.27832031 5.45581055 C-35.61457939 5.27925094 -33.95051959 5.10566654 -32.28613281 4.93530273 C-23.45939613 4.02979214 -14.91490834 3.04447172 -6.35644531 0.5793457 C-4 0 -4 0 0 0 Z " fill="#4D85BE" transform="translate(372,316)"/>
<path d="M0 0 C5.54638316 0.4621986 10.44129225 1.6450586 15 5 C15.9375 7.5625 15.9375 7.5625 16 10 C16.33 10.99 16.66 11.98 17 13 C12.68711193 11.52769684 9.28218566 9.23423235 5.6875 6.5 C4.86282227 5.89478516 4.86282227 5.89478516 4.02148438 5.27734375 C2.63992549 4.23731309 1.31443702 3.12366546 0 2 C0 1.34 0 0.68 0 0 Z " fill="#557BAC" transform="translate(59,277)"/>
<path d="M0 0 C0.91652344 0.01160156 1.83304687 0.02320313 2.77734375 0.03515625 C3.69644531 0.04417969 4.61554688 0.05320312 5.5625 0.0625 C6.27277344 0.07410156 6.98304688 0.08570313 7.71484375 0.09765625 C4.99257806 1.56666978 2.54056281 2.48615461 -0.48828125 3.09765625 C-1.29620117 3.26168945 -2.10412109 3.42572266 -2.93652344 3.59472656 C-3.79407227 3.76069336 -4.65162109 3.92666016 -5.53515625 4.09765625 C-6.42106445 4.27135742 -7.30697266 4.44505859 -8.21972656 4.62402344 C-18.86785877 6.66042619 -29.42132826 8.24123107 -40.28515625 8.09765625 C-37.15986318 6.31465115 -34.52543546 5.71036241 -30.9609375 5.31640625 C-29.93162109 5.19652344 -28.90230469 5.07664062 -27.84179688 4.953125 C-26.77123047 4.83582031 -25.70066406 4.71851563 -24.59765625 4.59765625 C-16.56432186 3.70123267 -7.47693059 0.31952695 0 0 Z " fill="#1D74BD" transform="translate(376.28515625,312.90234375)"/>
<path d="M0 0 C0.86625 0.7734375 0.86625 0.7734375 1.75 1.5625 C1.40978036 4.73788332 0.72533396 5.58526865 -1.6875 7.8125 C-4.25 9.5625 -4.25 9.5625 -6.25 9.5625 C-7.375 2.9375 -7.375 2.9375 -6.25 -0.4375 C-3.45214701 -1.78818765 -2.64979562 -1.69292498 0 0 Z " fill="#0C70C2" transform="translate(336.25,242.4375)"/>
<path d="M0 0 C0.33 0 0.66 0 1 0 C1.09796875 1.11117187 1.1959375 2.22234375 1.296875 3.3671875 C2.04770134 11.07833008 2.81435195 18.03444533 6.1953125 25.1171875 C7 27 7 27 7 30 C2.56416985 27.78208493 1.34208815 19.95784682 -0.25 15.5 C-1.28342326 10.67735814 -2.2784266 4.55685321 0 0 Z " fill="#0F6EB9" transform="translate(147,223)"/>
<path d="M0 0 C2.475 0.99 2.475 0.99 5 2 C4.55761615 9.53216715 3.86094772 16.6802723 2 24 C1.67 24 1.34 24 1 24 C0.82697594 11.38846878 0.82697594 11.38846878 1.625 6.375 C2.38030008 2.8736587 2.38030008 2.8736587 0 0 Z " fill="#0B6BB7" transform="translate(259,238)"/>
<path d="M0 0 C0.66 0 1.32 0 2 0 C0.07289294 16.8929385 0.07289294 16.8929385 -2 24 C-2.33 24 -2.66 24 -3 24 C-3.40735653 15.49077472 -2.43092956 8.1609778 0 0 Z " fill="#0D70B8" transform="translate(258,263)"/>
<path d="M0 0 C0.66 0 1.32 0 2 0 C1.3729966 5.53853007 0.45718886 10.9320719 -0.6953125 16.38671875 C-1.11300956 19.96927426 -0.60958155 22.7808369 1 26 C-0.32 25.67 -1.64 25.34 -3 25 C-3 20.05 -3 15.1 -3 10 C-2.34 10 -1.68 10 -1 10 C-1.0309375 8.3603125 -1.0309375 8.3603125 -1.0625 6.6875 C-1 3 -1 3 0 0 Z " fill="#0D69B5" transform="translate(162,271)"/>
<path d="M0 0 C17.45172234 4.30584551 17.45172234 4.30584551 24 10 C18.98682036 9.58223503 15.47797594 8.4270925 11.0625 6.046875 C8.93552914 4.96727616 6.81235329 4.16244865 4.5625 3.375 C1 2 1 2 0 0 Z " fill="#1071BB" transform="translate(140,302)"/>
<path d="M0 0 C2.73888874 1.14168415 4.75036615 2.2933349 6.85546875 4.3984375 C6.52546875 5.3884375 6.19546875 6.3784375 5.85546875 7.3984375 C4.86546875 7.0684375 3.87546875 6.7384375 2.85546875 6.3984375 C2.52546875 5.0784375 2.19546875 3.7584375 1.85546875 2.3984375 C-3.42453125 2.3984375 -8.70453125 2.3984375 -14.14453125 2.3984375 C-14.14453125 1.7384375 -14.14453125 1.0784375 -14.14453125 0.3984375 C-10.0073379 -1.67015917 -4.37928376 -1.22843297 0 0 Z " fill="#0D6AB3" transform="translate(383.14453125,209.6015625)"/>
<path d="M0 0 C0.33 0.66 0.66 1.32 1 2 C-0.18078125 1.9278125 -1.3615625 1.855625 -2.578125 1.78125 C-4.1354129 1.68743748 -5.69270478 1.59369093 -7.25 1.5 C-8.41595703 1.42845703 -8.41595703 1.42845703 -9.60546875 1.35546875 C-10.35957031 1.31035156 -11.11367188 1.26523438 -11.890625 1.21875 C-12.92751465 1.1559082 -12.92751465 1.1559082 -13.98535156 1.09179688 C-15.98838965 1.00052902 -17.9948837 1 -20 1 C-20 0.34 -20 -0.32 -20 -1 C-13.45452324 -3.18182559 -6.37412537 -2.4411544 0 0 Z " fill="#0F6DB7" transform="translate(388,199)"/>
<path d="M0 0 C0.33 0.66 0.66 1.32 1 2 C2.72704913 2.74498985 2.72704913 2.74498985 4.81640625 3.2890625 C5.96206055 3.61777344 5.96206055 3.61777344 7.13085938 3.953125 C7.93330078 4.17484375 8.73574219 4.3965625 9.5625 4.625 C10.77196289 4.96917969 10.77196289 4.96917969 12.00585938 5.3203125 C14.00192203 5.88724154 16.00071919 6.44452643 18 7 C17.34 7.66 16.68 8.32 16 9 C14.09193034 8.59830112 12.18501595 8.17865588 10.30859375 7.6484375 C7.88669118 6.96817383 5.45764175 6.4107892 3 5.875 C2.236875 5.70742187 1.47375 5.53984375 0.6875 5.3671875 C0.130625 5.24601563 -0.42625 5.12484375 -1 5 C-0.67 3.35 -0.34 1.7 0 0 Z " fill="#0C6BB6" transform="translate(391,249)"/>
<path d="M0 0 C0.66 0 1.32 0 2 0 C2.185625 0.99 2.37125 1.98 2.5625 3 C3.94832514 8.01976661 7.44894727 11.34450454 11 15 C10.01 15.495 10.01 15.495 9 16 C9 15.34 9 14.68 9 14 C7.35 13.67 5.7 13.34 4 13 C3.67 11.35 3.34 9.7 3 8 C2.01 7.67 1.02 7.34 0 7 C0 4.69 0 2.38 0 0 Z " fill="#0A69B8" transform="translate(367,288)"/>
<path d="M0 0 C-0.0625 1.75 -0.0625 1.75 -1 4 C-3.24164322 5.59501537 -5.53566643 6.74543018 -8 8 C-9.32 7.01 -10.64 6.02 -12 5 C-10.37750059 4.16180842 -8.75191503 3.3295884 -7.125 2.5 C-6.22007812 2.0359375 -5.31515625 1.571875 -4.3828125 1.09375 C-2 0 -2 0 0 0 Z " fill="#5882AF" transform="translate(487,276)"/>
<path d="M0 0 C2.0622048 -0.054348 4.12482816 -0.09294961 6.1875 -0.125 C7.33605469 -0.14820313 8.48460937 -0.17140625 9.66796875 -0.1953125 C12.91740372 -0.00484152 15.08660521 0.60639873 18 2 C17.67 2.66 17.34 3.32 17 4 C16.05125 3.855625 15.1025 3.71125 14.125 3.5625 C9.43259653 2.88802722 4.71865588 2.44623104 0 2 C0 1.34 0 0.68 0 0 Z " fill="#106AB5" transform="translate(262,154)"/>
<path d="M0 0 C0.33 0.66 0.66 1.32 1 2 C-0.21484375 4.6015625 -0.21484375 4.6015625 -1.9375 7.625 C-2.50339844 8.62789063 -3.06929688 9.63078125 -3.65234375 10.6640625 C-4.09707031 11.43492187 -4.54179688 12.20578125 -5 13 C-5.66 13 -6.32 13 -7 13 C-7.33 13.99 -7.66 14.98 -8 16 C-8.33 15.34 -8.66 14.68 -9 14 C-6.98488028 8.71836201 -4.44006916 3.61783413 0 0 Z " fill="#1270BB" transform="translate(125,263)"/>
<path d="M0 0 C0 0.99 0 1.98 0 3 C-2.3125 4.5625 -2.3125 4.5625 -5 6 C-5.99 6.66 -6.98 7.32 -8 8 C-8.99 8 -9.98 8 -11 8 C-11.33 8.99 -11.66 9.98 -12 11 C-12.66 11 -13.32 11 -14 11 C-12.53185858 7.41297339 -10.61565711 5.59626852 -7.5625 3.25 C-6.78003906 2.63640625 -5.99757813 2.0228125 -5.19140625 1.390625 C-3 0 -3 0 0 0 Z " fill="#0B75BE" transform="translate(340,259)"/>
<path d="M0 0 C1.32 0.33 2.64 0.66 4 1 C4 1.66 4 2.32 4 3 C4.598125 3.20625 5.19625 3.4125 5.8125 3.625 C8.81018767 5.50926082 9.61361776 7.81132084 11 11 C10.34 11.66 9.68 12.32 9 13 C8.34 13 7.68 13 7 13 C6.71125 12.030625 6.4225 11.06125 6.125 10.0625 C5.35785318 6.89335797 5.35785318 6.89335797 3 6 C3 4.68 3 3.36 3 2 C2.01 1.67 1.02 1.34 0 1 C0 0.67 0 0.34 0 0 Z " fill="#0D76BA" transform="translate(177,212)"/>
<path d="M0 0 C2.64 0.33 5.28 0.66 8 1 C7.855625 1.969375 7.71125 2.93875 7.5625 3.9375 C6.93952558 8.28052169 6.46492141 12.63765234 6 17 C5.67 17 5.34 17 5 17 C4.77754607 15.39773045 4.57253331 13.79303233 4.375 12.1875 C4.25898438 11.29417969 4.14296875 10.40085937 4.0234375 9.48046875 C4 7 4 7 6 4 C4.02 3.34 2.04 2.68 0 2 C0 1.34 0 0.68 0 0 Z " fill="#0E69B4" transform="translate(375,259)"/>
<path d="M0 0 C0.33 0 0.66 0 1 0 C1.50604924 2.39469729 2.00499517 4.79051717 2.5 7.1875 C2.64308594 7.86103516 2.78617188 8.53457031 2.93359375 9.22851562 C3.68069842 12.87509793 4.17352282 16.27648957 4 20 C3.34 20 2.68 20 2 20 C1.46867611 17.41842632 0.94965621 14.83538244 0.4375 12.25 C0.21030273 11.15558594 0.21030273 11.15558594 -0.02148438 10.0390625 C-0.74557178 6.33442927 -1.09817231 3.60677678 0 0 Z " fill="#176CB6" transform="translate(171,265)"/>
<path d="M0 0 C0.99 0.33 1.98 0.66 3 1 C3.66 0.67 4.32 0.34 5 0 C3.18690997 3.77727089 1.0926741 7.37269822 -1 11 C-1.99 11 -2.98 11 -4 11 C-3.67 10.01 -3.34 9.02 -3 8 C-2.67 6.80375 -2.34 5.6075 -2 4.375 C-1 1 -1 1 0 0 Z " fill="#7FBBDF" transform="translate(139,209)"/>
<path d="M0 0 C0 0.66 0 1.32 0 2 C-0.91523438 2.12117187 -1.83046875 2.24234375 -2.7734375 2.3671875 C-4.55621094 2.61855469 -4.55621094 2.61855469 -6.375 2.875 C-7.55835938 3.03742188 -8.74171875 3.19984375 -9.9609375 3.3671875 C-13.09566659 3.7302585 -13.09566659 3.7302585 -15 6 C-15.99 6 -16.98 6 -18 6 C-18 5.34 -18 4.68 -18 4 C-16.58398286 3.51891725 -15.16715563 3.04021859 -13.75 2.5625 C-12.96109375 2.29566406 -12.1721875 2.02882812 -11.359375 1.75390625 C-7.4155535 0.49371163 -4.16018847 -0.11556079 0 0 Z " fill="#0E6DB9" transform="translate(243,221)"/>
<path d="M0 0 C1.890625 0.24609375 1.890625 0.24609375 4 1 C5.046875 2.84765625 5.046875 2.84765625 5.75 5.0625 C5.99234375 5.79597656 6.2346875 6.52945313 6.484375 7.28515625 C6.65453125 7.85105469 6.8246875 8.41695312 7 9 C6.34 9.66 5.68 10.32 5 11 C1.875 10.625 1.875 10.625 -1 10 C0.32 9.34 1.64 8.68 3 8 C2.505 7.05125 2.01 6.1025 1.5 5.125 C0 2 0 2 0 0 Z " fill="#106CB7" transform="translate(244,211)"/>
<path d="M0 0 C2.64 0.33 5.28 0.66 8 1 C7.01 1.495 7.01 1.495 6 2 C6 2.66 6 3.32 6 4 C5.34 4 4.68 4 4 4 C4 4.66 4 5.32 4 6 C2.35 5.67 0.7 5.34 -1 5 C-0.67 3.35 -0.34 1.7 0 0 Z M-3 5 C-1 6 -1 6 -1 6 Z " fill="#6588B3" transform="translate(466,285)"/>
<path d="M0 0 C0.33 0.99 0.66 1.98 1 3 C0.360625 3.226875 -0.27875 3.45375 -0.9375 3.6875 C-3.27193661 4.85250896 -3.27193661 4.85250896 -3.75 7.625 C-3.8325 8.40875 -3.915 9.1925 -4 10 C-3.34 10.33 -2.68 10.66 -2 11 C-2.99 11.495 -2.99 11.495 -4 12 C-4.99 11.34 -5.98 10.68 -7 10 C-6.52727227 5.74545047 -4.03562624 3.80795427 -1 1 C-0.67 0.67 -0.34 0.34 0 0 Z " fill="#106AB5" transform="translate(207,237)"/>
<path d="M0 0 C0.598125 0.226875 1.19625 0.45375 1.8125 0.6875 C0.7149777 3.68074263 0.13567108 4.53360901 -2.8125 5.9375 C-3.59625 6.185 -4.38 6.4325 -5.1875 6.6875 C-5.1875 2.6875 -5.1875 2.6875 -3.9375 0.875 C-2.1875 -0.3125 -2.1875 -0.3125 0 0 Z " fill="#0B7AC5" transform="translate(215.1875,231.3125)"/>
<path d="M0 0 C2.97 0.33 5.94 0.66 9 1 C9 1.33 9 1.66 9 2 C7.865625 2.12375 6.73125 2.2475 5.5625 2.375 C3.7990625 2.684375 3.7990625 2.684375 2 3 C0.71553081 5.56893838 0.67022856 7.76576337 0.4375 10.625 C0.35371094 11.62789062 0.26992187 12.63078125 0.18359375 13.6640625 C0.12300781 14.43492188 0.06242188 15.20578125 0 16 C-0.33 16 -0.66 16 -1 16 C-1.02692484 13.70839681 -1.04636124 11.41670454 -1.0625 9.125 C-1.07410156 7.84882812 -1.08570313 6.57265625 -1.09765625 5.2578125 C-1 2 -1 2 0 0 Z " fill="#629CB7" transform="translate(227,69)"/>
<path d="M0 0 C0.33 0 0.66 0 1 0 C1.19644384 1.89492746 1.38177288 3.79100903 1.5625 5.6875 C1.66691406 6.74324219 1.77132813 7.79898438 1.87890625 8.88671875 C1.99277552 11.81426086 1.70848415 14.17131144 1 17 C0.34 16.67 -0.32 16.34 -1 16 C-0.67 10.72 -0.34 5.44 0 0 Z " fill="#1E76BE" transform="translate(298,177)"/>
<path d="M0 0 C0.99 0 1.98 0 3 0 C3.36567164 6.460199 3.36567164 6.460199 1.6875 8.9375 C0 10 0 10 -3 10 C-2.690625 9.443125 -2.38125 8.88625 -2.0625 8.3125 C-0.84620449 5.6652686 0 2.94650436 0 0 Z " fill="#0E73BF" transform="translate(281,287)"/>
<path d="M0 0 C-0.99 0 -1.98 0 -3 0 C-3 0.66 -3 1.32 -3 2 C-5.01822917 2.45572917 -7.03645833 2.91145833 -9.0546875 3.3671875 C-11.20719964 3.90474428 -11.20719964 3.90474428 -13 6 C-13 4.68 -13 3.36 -13 2 C-11.5882217 1.46605821 -10.17029756 0.94834896 -8.75 0.4375 C-7.96109375 0.14746094 -7.1721875 -0.14257812 -6.359375 -0.44140625 C-3.80896548 -1.04522837 -2.44677771 -0.8473932 0 0 Z " fill="#0E6AB8" transform="translate(356,254)"/>
<path d="M0 0 C4.85077588 1.11940982 7.777893 2.1334716 11 6 C10.34 6.66 9.68 7.32 9 8 C7.49712782 6.85793642 5.99776716 5.71125043 4.5 4.5625 C3.6646875 3.92441406 2.829375 3.28632813 1.96875 2.62890625 C1.3190625 2.09136719 0.669375 1.55382812 0 1 C0 0.67 0 0.34 0 0 Z " fill="#0A6AB9" transform="translate(268,229)"/>
<path d="M0 0 C0.66 0.33 1.32 0.66 2 1 C1.49202991 5.3177458 0.80317221 9.03302114 -1 13 C-1.33 13 -1.66 13 -2 13 C-2.16682272 8.07872966 -2.24828052 4.49656104 0 0 Z " fill="#1076B9" transform="translate(296,195)"/>
<path d="M0 0 C0.99 0 1.98 0 3 0 C3 0.99 3 1.98 3 3 C-4.425 4.485 -4.425 4.485 -12 6 C-12 5.34 -12 4.68 -12 4 C-10.7625 3.67 -9.525 3.34 -8.25 3 C-7.20585937 2.7215625 -7.20585937 2.7215625 -6.140625 2.4375 C-4 2 -4 2 0 2 C0 1.34 0 0.68 0 0 Z " fill="#6695C0" transform="translate(384,312)"/>
<path d="M0 0 C0.66 0 1.32 0 2 0 C1.67 1.65 1.34 3.3 1 5 C-0.32 5.33 -1.64 5.66 -3 6 C-3 6.66 -3 7.32 -3 8 C-4.65 7.67 -6.3 7.34 -8 7 C-7.67 6.34 -7.34 5.68 -7 5 C-6.01 5 -5.02 5 -4 5 C-3.01 4.67 -2.02 4.34 -1 4 C-0.26676204 1.98491642 -0.26676204 1.98491642 0 0 Z " fill="#0A70B8" transform="translate(173,294)"/>
<path d="M0 0 C0.33 0.66 0.66 1.32 1 2 C0.34 2 -0.32 2 -1 2 C-1.33 3.65 -1.66 5.3 -2 7 C-2.66 7 -3.32 7 -4 7 C-4.33 8.65 -4.66 10.3 -5 12 C-5.33 11.34 -5.66 10.68 -6 10 C-6.66 9.67 -7.32 9.34 -8 9 C-7.04663979 7.68388323 -6.08714226 6.37221039 -5.125 5.0625 C-4.59132812 4.33160156 -4.05765625 3.60070312 -3.5078125 2.84765625 C-2 1 -2 1 0 0 Z " fill="#0D6AB4" transform="translate(249,160)"/>
<path d="M0 0 C0.33 0.66 0.66 1.32 1 2 C1.66 2.33 2.32 2.66 3 3 C-0.50776784 4.60355101 -3.14354879 5.22036864 -7 5 C-4.63707344 2.47411298 -3.33537489 1.11179163 0 0 Z " fill="#0D6CBF" transform="translate(223,226)"/>
<path d="M0 0 C2.31 0.33 4.62 0.66 7 1 C7 2.65 7 4.3 7 6 C4.50638429 4.79618552 2.31856917 3.54571278 0 2 C0 1.34 0 0.68 0 0 Z " fill="#6F93C0" transform="translate(59,277)"/>
<path d="M0 0 C1.98 0.66 3.96 1.32 6 2 C6 2.99 6 3.98 6 5 C1.77777778 8 1.77777778 8 -1 8 C-0.67 5.36 -0.34 2.72 0 0 Z " fill="#096EBD" transform="translate(211,264)"/>
<path d="M0 0 C0.66 0 1.32 0 2 0 C3.01351664 1.65848177 4.01120795 3.32665961 5 5 C6.29579647 6.36984198 7.61992749 7.7151049 9 9 C8.67 9.66 8.34 10.32 8 11 C4.7 8.03 1.4 5.06 -2 2 C-1.34 1.34 -0.68 0.68 0 0 Z " fill="#0B65B1" transform="translate(331,220)"/>
<path d="M0 0 C1.670625 0.061875 1.670625 0.061875 3.375 0.125 C1.7563036 3.36239279 -1.46989543 4.54744771 -4.625 6.125 C-5.25 4.25 -5.25 4.25 -5.625 2.125 C-3.625 0.125 -3.625 0.125 0 0 Z " fill="#75B8D8" transform="translate(150.625,201.875)"/>
<path d="M0 0 C2.11939205 4.23878411 2.43006213 6.35532905 2 11 C1.01 11.66 0.02 12.32 -1 13 C-0.67 8.71 -0.34 4.42 0 0 Z " fill="#146EB6" transform="translate(427,275)"/>
<path d="M0 0 C2.375 -0.125 2.375 -0.125 5 0 C7 2 7 2 7.125 4.625 C7.08375 5.40875 7.0425 6.1925 7 7 C3.17053157 5.54744301 1.87949705 3.57104439 0 0 Z " fill="#0D75BF" transform="translate(205,250)"/>
<path d="M0 0 C5.66710699 1.31793186 7.66437233 3.48709197 11 8 C1.9 3.8 1.9 3.8 0 0 Z " fill="#0E68B5" transform="translate(121,290)"/>
<path d="M0 0 C0.33 0.99 0.66 1.98 1 3 C-0.32 3.99 -1.64 4.98 -3 6 C-3.99 5.34 -4.98 4.68 -6 4 C-2.25 0 -2.25 0 0 0 Z " fill="#0D7DC8" transform="translate(137,256)"/>
<path d="M0 0 C0.33 0.99 0.66 1.98 1 3 C0.67 3.66 0.34 4.32 0 5 C-2.5625 5.625 -2.5625 5.625 -5 6 C-5 6.66 -5 7.32 -5 8 C-5.66 7.67 -6.32 7.34 -7 7 C-2.25 1.125 -2.25 1.125 0 0 Z " fill="#0E69B2" transform="translate(364,212)"/>
<path d="M0 0 C1.32 0.33 2.64 0.66 4 1 C1.64264116 3.72957339 -0.58133526 4.88893396 -4 6 C-4.99 6 -5.98 6 -7 6 C-7 5.34 -7 4.68 -7 4 C-3.535 3.505 -3.535 3.505 0 3 C0 2.01 0 1.02 0 0 Z " fill="#0E77BA" transform="translate(391,306)"/>
<path d="M0 0 C0.66 0 1.32 0 2 0 C2.1546875 1.175625 2.1546875 1.175625 2.3125 2.375 C2.77595022 5.33045181 2.77595022 5.33045181 6 7 C5.67 7.66 5.34 8.32 5 9 C2.5625 7.8125 2.5625 7.8125 0 6 C-0.875 3.375 -0.875 3.375 -1 1 C-0.67 0.67 -0.34 0.34 0 0 Z " fill="#0C6BB9" transform="translate(253,288)"/>
<path d="M0 0 C0.66 0 1.32 0 2 0 C3.4783226 2.95664519 3.06032783 5.74229737 3 9 C2.34 9 1.68 9 1 9 C0.67 6.03 0.34 3.06 0 0 Z " fill="#227FC2" transform="translate(354,228)"/>
<path d="M0 0 C0.66 0 1.32 0 2 0 C0.84414715 3.91211733 -0.35534962 6.8745041 -3 10 C-2.25 2.25 -2.25 2.25 0 0 Z " fill="#0C74B9" transform="translate(291,210)"/>
<path d="M0 0 C0.7425 0.0825 1.485 0.165 2.25 0.25 C2.25 0.91 2.25 1.57 2.25 2.25 C-0.5625 3.8125 -0.5625 3.8125 -3.75 5.25 C-4.74 4.92 -5.73 4.59 -6.75 4.25 C-3.42692308 0.31153846 -3.42692308 0.31153846 0 0 Z " fill="#0C6FBA" transform="translate(363.75,198.75)"/>
<path d="M0 0 C0.99 0.33 1.98 0.66 3 1 C-1.39453125 5.00390625 -1.39453125 5.00390625 -3 6 C-3.99 5.67 -4.98 5.34 -6 5 C-4.59240479 2.18480957 -2.77416723 1.38708362 0 0 Z " fill="#0D6AB4" transform="translate(423,288)"/>
<path d="M0 0 C0 0.66 0 1.32 0 2 C-2.97411124 3.23921302 -5.85262818 4.30058404 -9 5 C-8.67 4.01 -8.34 3.02 -8 2 C-5.27366306 0.89786379 -2.95855967 0 0 0 Z " fill="#0E73BD" transform="translate(261,155)"/>
<path d="M0 0 C3 1 3 1 5 3 C5.99 3.66 6.98 4.32 8 5 C4.98968256 5.93423645 4.13349732 6.04449911 1 5 C0.67 3.35 0.34 1.7 0 0 Z " fill="#076DB9" transform="translate(264,302)"/>
<path d="M0 0 C0.99 0.33 1.98 0.66 3 1 C0.82575883 3.50037734 -0.73045798 4.43628586 -4 5 C-4.33 4.34 -4.66 3.68 -5 3 C-4.01 3 -3.02 3 -2 3 C-2 2.34 -2 1.68 -2 1 C-1.34 0.67 -0.68 0.34 0 0 Z " fill="#096BB6" transform="translate(402,301)"/>
<path d="M0 0 C2.475 0.99 2.475 0.99 5 2 C5 3.98 5 5.96 5 8 C4.34 8 3.68 8 3 8 C2.690625 7.05125 2.38125 6.1025 2.0625 5.125 C1.12605258 2.13919592 1.12605258 2.13919592 0 0 Z " fill="#0F73BD" transform="translate(259,238)"/>
<path d="M0 0 C1.31625194 2.63250388 0.74813658 3.80179056 0.0625 6.625 C-0.13214844 7.44226563 -0.32679688 8.25953125 -0.52734375 9.1015625 C-0.68332031 9.72804687 -0.83929688 10.35453125 -1 11 C-1.33 11 -1.66 11 -2 11 C-2.94693195 7.2983569 -3.30443767 5.60887535 -1.5625 2.125 C-1.046875 1.42375 -0.53125 0.7225 0 0 Z " fill="#0C87CC" transform="translate(150,217)"/>
<path d="M0 0 C1 3 1 3 -0.4375 6.1875 C-1.2109375 7.5796875 -1.2109375 7.5796875 -2 9 C-2.66 7.68 -3.32 6.36 -4 5 C-3.34 4.01 -2.68 3.02 -2 2 C-1.34 2 -0.68 2 0 2 C0 1.34 0 0.68 0 0 Z " fill="#0F7CC7" transform="translate(359,218)"/>
<path d="M0 0 C1.9375 0.3125 1.9375 0.3125 4 1 C4.33 1.99 4.66 2.98 5 4 C4.34 4.66 3.68 5.32 3 6 C2.34 6 1.68 6 1 6 C0.67 4.02 0.34 2.04 0 0 Z " fill="#0C81C6" transform="translate(183,219)"/>
<path d="M0 0 C0.99 0.33 1.98 0.66 3 1 C3 1.66 3 2.32 3 3 C3.66 3 4.32 3 5 3 C5 4.65 5 6.3 5 8 C4.34 8 3.68 8 3 8 C2.01 5.36 1.02 2.72 0 0 Z " fill="#4E7AAC" transform="translate(304,164)"/>
<path d="M0 0 C0.66 0.99 1.32 1.98 2 3 C1.01 3.66 0.02 4.32 -1 5 C-1.99 4.67 -2.98 4.34 -4 4 C-4 3.34 -4 2.68 -4 2 C-2.68 1.34 -1.36 0.68 0 0 Z " fill="#688BB3" transform="translate(454,290)"/>
<path d="M0 0 C0.66 0 1.32 0 2 0 C3.6875 2.375 3.6875 2.375 5 5 C4.67 5.66 4.34 6.32 4 7 C3.01 6.67 2.02 6.34 1 6 C0.67 4.02 0.34 2.04 0 0 Z " fill="#0872B9" transform="translate(422,267)"/>
<path d="M0 0 C0.66 0 1.32 0 2 0 C1.74438677 2.3431213 1.40729228 4.67843403 1 7 C0.01 7.495 0.01 7.495 -1 8 C-1.125 2.25 -1.125 2.25 0 0 Z " fill="#107AC3" transform="translate(258,263)"/>
</svg>
