<?xml version="1.0" encoding="UTF-8"?>
<svg version="1.1" xmlns="http://www.w3.org/2000/svg" width="130" height="120">
<path d="M0 0 C42.9 0 85.8 0 130 0 C130 39.6 130 79.2 130 120 C87.1 120 44.2 120 0 120 C0 80.4 0 40.8 0 0 Z " fill="#FCFBFB" transform="translate(0,0)"/>
<path d="M0 0 C3.6143676 1.2047892 3.87124929 1.99214649 5.71484375 5.20703125 C6.4888855 6.5386731 6.4888855 6.5386731 7.27856445 7.8972168 C7.82601318 8.85926025 8.37346191 9.82130371 8.9375 10.8125 C10.09537454 12.81567073 11.25425264 14.81826167 12.4140625 16.8203125 C13.30013184 18.35606934 13.30013184 18.35606934 14.20410156 19.92285156 C15.94440396 22.90474001 17.72316017 25.85868745 19.5234375 28.8046875 C20.07652588 29.71114014 20.62961426 30.61759277 21.19946289 31.55151367 C22.25934541 33.28354811 23.32351239 35.0129694 24.39233398 36.73950195 C24.86743408 37.520271 25.34253418 38.30104004 25.83203125 39.10546875 C26.25202393 39.78762451 26.6720166 40.46978027 27.10473633 41.17260742 C28 43 28 43 28 46 C25.69 46.99 23.38 47.98 21 49 C20.5059668 48.13197754 20.01193359 47.26395508 19.50292969 46.36962891 C17.66488845 43.14675356 15.81286741 39.93210018 13.95654297 36.71972656 C13.15551067 35.32902297 12.35827207 33.93612698 11.56494141 32.54101562 C10.42303139 30.53445534 9.26764877 28.5362107 8.109375 26.5390625 C7.75816589 25.91504547 7.40695679 25.29102844 7.04510498 24.64810181 C5.11865694 21.35974412 3.68452015 19.24984703 0 18 C-6.4584309 28.26068041 -12.80186601 38.57994865 -19 49 C-22.465 47.515 -22.465 47.515 -26 46 C-24.39593173 39.9546677 -21.20716751 34.9883116 -18 29.6875 C-16.82787449 27.72931659 -15.65600262 25.77098134 -14.484375 23.8125 C-13.89978516 22.83925781 -13.31519531 21.86601563 -12.71289062 20.86328125 C-9.76557619 15.93652759 -6.87560216 10.97617284 -3.984375 6.01635742 C-1.10912291 1.10912291 -1.10912291 1.10912291 0 0 Z " fill="#0F0F0F" transform="translate(69,64)"/>
<path d="M0 0 C16.5 0 33 0 50 0 C50 2.64 50 5.28 50 8 C34.16 8.495 34.16 8.495 18 9 C18.89790197 14.38741184 19.65447878 16.62431914 22.34375 21.09765625 C23.01277344 22.22880859 23.68179688 23.35996094 24.37109375 24.52539062 C25.07984761 25.70495722 25.78949172 26.88398934 26.5 28.0625 C27.89407865 30.3818324 29.27745135 32.70660708 30.65625 35.03515625 C31.58147461 36.57248413 31.58147461 36.57248413 32.52539062 38.14086914 C33.93571173 40.87535101 34.76055899 42.9395624 35 46 C33.1875 48.3125 33.1875 48.3125 31 50 C30.34 50 29.68 50 29 50 C27.6940918 48.14599609 27.6940918 48.14599609 26.19921875 45.5234375 C25.36052246 44.06695801 25.36052246 44.06695801 24.50488281 42.58105469 C23.90514648 41.52305664 23.30541016 40.46505859 22.6875 39.375 C21.42649283 37.17927868 20.1647566 34.98397593 18.90234375 32.7890625 C18.25765137 31.6640332 17.61295898 30.53900391 16.94873047 29.37988281 C13.3881261 23.20436204 9.73427719 17.08405222 6.08862305 10.95849609 C5.57984619 10.10078613 5.07106934 9.24307617 4.546875 8.359375 C4.10182617 7.61139648 3.65677734 6.86341797 3.19824219 6.09277344 C2.05853493 4.10223338 1.02578578 2.05157157 0 0 Z " fill="#0F0F0F" transform="translate(74,54)"/>
<path d="M0 0 C16.17 0 32.34 0 49 0 C47.46043831 3.84890422 45.87546331 7.19953023 43.875 10.796875 C43.25536377 11.91344482 42.63572754 13.03001465 41.99731445 14.18041992 C41.3320592 15.37056865 40.6662781 16.56042358 40 17.75 C39.66463226 18.34938385 39.32926453 18.9487677 38.98373413 19.5663147 C37.29181079 22.5882956 35.59578983 25.60792784 33.89599609 28.62548828 C32.22672298 31.5964763 30.57436322 34.5761038 28.92578125 37.55859375 C28.05599841 39.10230185 27.18501442 40.64533416 26.3125 42.1875 C25.92771484 42.89293945 25.54292969 43.59837891 25.14648438 44.32519531 C24.05078125 46.23046875 24.05078125 46.23046875 22 49 C18 49 18 49 16.1875 47.8125 C15 46 15 46 15.21679688 43.75952148 C16.14949022 40.47328929 17.58199036 37.96244784 19.34375 35.03515625 C20.01277344 33.90529297 20.68179688 32.77542969 21.37109375 31.61132812 C22.43481589 29.83461272 23.50162011 28.05981274 24.57080078 26.28637695 C25.60719147 24.56153015 26.63185471 22.82965407 27.65625 21.09765625 C28.27306641 20.07164307 28.88988281 19.04562988 29.52539062 17.98852539 C31.35728227 14.63872098 31.35728227 14.63872098 32 9 C21.44 8.67 10.88 8.34 0 8 C0 5.36 0 2.72 0 0 Z " fill="#101010" transform="translate(16,54)"/>
<path d="M0 0 C3.62834995 0.0362835 5.04084903 0.19049527 8.25 2.0625 C11.18966354 5.36962148 12.08471951 7.21751676 12.75 11.625 C12.16971765 15.9045823 11.10007829 17.83904331 8.16015625 20.91796875 C4.75132801 23.40662249 1.38607514 23.83783334 -2.75 23.3125 C-6.59676353 21.35414766 -8.35966175 19.89800738 -10.75 16.3125 C-11.29593928 12.92192974 -11.30150778 9.70265077 -10.75 6.3125 C-8.3125 3.25 -8.3125 3.25 -5.75 1.3125 C-4.10962605 -0.32787395 -2.25523159 0.06338669 0 0 Z " fill="#0C0C0C" transform="translate(69.75,7.6875)"/>
<path d="M0 0 C8.79704017 -0.9640592 8.79704017 -0.9640592 12.22265625 1.78125 C13.94403156 3.78893208 15.52225955 5.80785523 17 8 C17.33 5.36 17.66 2.72 18 0 C20.31 0 22.62 0 25 0 C25 4.95 25 9.9 25 15 C18.56994819 15.79274611 18.56994819 15.79274611 15 15 C12.06814932 12.35669702 10.02211219 9.3746508 8 6 C7.67 8.97 7.34 11.94 7 15 C4.69 15 2.38 15 0 15 C0 10.05 0 5.1 0 0 Z " fill="#171716" transform="translate(67,35)"/>
<path d="M0 0 C3.18428529 0.30005765 4.11097054 1.17270485 6.34375 3.52734375 C9.33026099 7.55805152 11.98387549 11.64572073 14.125 16.1875 C11.485 16.1875 8.845 16.1875 6.125 16.1875 C6.125 15.5275 6.125 14.8675 6.125 14.1875 C1.835 14.1875 -2.455 14.1875 -6.875 14.1875 C-6.875 14.8475 -6.875 15.5075 -6.875 16.1875 C-9.185 16.1875 -11.495 16.1875 -13.875 16.1875 C-12.5893714 13.81403182 -11.26615495 11.49889098 -9.875 9.1875 C-9.43929687 8.44628906 -9.00359375 7.70507812 -8.5546875 6.94140625 C-6.23836773 3.39098169 -4.38264677 0.6531003 0 0 Z " fill="#171716" transform="translate(106.875,33.8125)"/>
<path d="M0 0 C1.87365234 0.00966797 1.87365234 0.00966797 3.78515625 0.01953125 C6.9375 0.1875 6.9375 0.1875 8.9375 1.1875 C8.9375 2.1775 8.9375 3.1675 8.9375 4.1875 C4.9775 3.8575 1.0175 3.5275 -3.0625 3.1875 C-3.0625 3.8475 -3.0625 4.5075 -3.0625 5.1875 C-2.21945313 5.30867188 -1.37640625 5.42984375 -0.5078125 5.5546875 C1.13574219 5.80605469 1.13574219 5.80605469 2.8125 6.0625 C3.90304688 6.22492187 4.99359375 6.38734375 6.1171875 6.5546875 C8.9375 7.1875 8.9375 7.1875 10.9375 9.1875 C10.57068342 12.12203261 10.07312754 13.05187246 7.9375 15.1875 C2.25232241 16.85961106 -3.15402483 17.00541793 -8.5625 14.6875 C-9.3875 14.1925 -10.2125 13.6975 -11.0625 13.1875 C-11.0625 12.1975 -11.0625 11.2075 -11.0625 10.1875 C-8.7525 10.1875 -6.4425 10.1875 -4.0625 10.1875 C-4.0625 10.8475 -4.0625 11.5075 -4.0625 12.1875 C-1.7525 12.1875 0.5575 12.1875 2.9375 12.1875 C2.9375 11.5275 2.9375 10.8675 2.9375 10.1875 C2.08285156 10.05472656 1.22820313 9.92195313 0.34765625 9.78515625 C-1.30943359 9.52025391 -1.30943359 9.52025391 -3 9.25 C-4.65322266 8.98896484 -4.65322266 8.98896484 -6.33984375 8.72265625 C-9.0625 8.1875 -9.0625 8.1875 -10.0625 7.1875 C-10.3125 4.75 -10.3125 4.75 -10.0625 2.1875 C-6.36008718 -0.28077522 -4.4033889 -0.05009026 0 0 Z " fill="#1D1D1C" transform="translate(32.0625,34.8125)"/>
<path d="M0 0 C5.94 0 11.88 0 18 0 C18 0.99 18 1.98 18 3 C14.04 3 10.08 3 6 3 C6 3.99 6 4.98 6 6 C9.63 6 13.26 6 17 6 C17 6.99 17 7.98 17 9 C13.7 9 10.4 9 7 9 C7 9.99 7 10.98 7 12 C10.63 12 14.26 12 18 12 C18 12.99 18 13.98 18 15 C12.06 15 6.12 15 0 15 C0 10.05 0 5.1 0 0 Z " fill="#0E0E0E" transform="translate(46,35)"/>
<path d="M0 0 C3.63 0.66 7.26 1.32 11 2 C11 2.66 11 3.32 11 4 C8.69 4 6.38 4 4 4 C4 3.34 4 2.68 4 2 C2.35 2 0.7 2 -1 2 C-0.67 1.34 -0.34 0.68 0 0 Z " fill="#EAE9E7" transform="translate(24,43)"/>
<path d="M0 0 C0.33 0.99 0.66 1.98 1 3 C-0.60320974 3.19551338 -2.20762986 3.38111983 -3.8125 3.5625 C-4.70582031 3.66691406 -5.59914063 3.77132812 -6.51953125 3.87890625 C-9 4 -9 4 -12 3 C-12 2.34 -12 1.68 -12 1 C-8.04 1.33 -4.08 1.66 0 2 C0 1.34 0 0.68 0 0 Z " fill="#C2C0BD" transform="translate(41,37)"/>
<path d="M0 0 C1.35432675 1.31200404 2.68733482 2.64631404 4 4 C4 4.33 4 4.66 4 5 C2.02 5 0.04 5 -2 5 C-1.34 3.35 -0.68 1.7 0 0 Z " fill="#EAE9E8" transform="translate(106,39)"/>
</svg>
